<svg width="24" height="24" viewBox="0 0 24 24" fill="none" xmlns="http://www.w3.org/2000/svg">
<path fill-rule="evenodd" clip-rule="evenodd" d="M0 6C0 2.68629 2.68629 0 6 0H18C21.3137 0 24 2.68629 24 6V18C24 21.3137 21.3137 24 18 24H6C2.68629 24 0 21.3137 0 18V6ZM5 8C5 7.44772 5.44772 7 6 7H18C18.5523 7 19 7.44772 19 8V17C19 17.5523 18.5523 18 18 18H6C5.44772 18 5 17.5523 5 17V8ZM7 11.618V16H17V11.618L12.4472 13.8944C12.1657 14.0352 11.8343 14.0352 11.5528 13.8944L7 11.618ZM7 9.38197L12 11.882L17 9.38197V9H7V9.38197Z" fill="#335691"/>
</svg>
